<?xml version="1.0" encoding="UTF-8" standalone="no"?>
<svg
   version="1.1"
   width="249.2444"
   height="283.4649"
   id="svg3676"
   viewBox="0 0 249.2444 283.4649"
   sodipodi:docname="keydb-icon.svg"
   inkscape:version="1.1.1 (3bf5ae0d25, 2021-09-20)"
   xmlns:inkscape="http://www.inkscape.org/namespaces/inkscape"
   xmlns:sodipodi="http://sodipodi.sourceforge.net/DTD/sodipodi-0.dtd"
   xmlns:xlink="http://www.w3.org/1999/xlink"
   xmlns="http://www.w3.org/2000/svg"
   xmlns:svg="http://www.w3.org/2000/svg">
  <sodipodi:namedview
     id="namedview3678"
     pagecolor="#ffffff"
     bordercolor="#666666"
     borderopacity="1.0"
     inkscape:pageshadow="2"
     inkscape:pageopacity="0.0"
     inkscape:pagecheckerboard="0"
     showgrid="false"
     inkscape:zoom="0.66792929"
     inkscape:cx="-174.41966"
     inkscape:cy="251.52363"
     inkscape:window-width="1920"
     inkscape:window-height="1112"
     inkscape:window-x="-8"
     inkscape:window-y="-8"
     inkscape:window-maximized="1"
     inkscape:current-layer="svg3676">
    <inkscape:grid
       type="xygrid"
       id="grid3808"
       originx="-271.3774"
       originy="-164.2674" />
  </sodipodi:namedview>
  <defs
     id="defs3647">
    <linearGradient
       id="grad9">
      <stop
         offset="0.0000%"
         stop-color="#f7f8f8"
         stop-opacity="1.0000"
         id="stop3639" />
      <stop
         offset="61.0000%"
         stop-color="#ffffff"
         stop-opacity="1.0000"
         id="stop3641" />
      <stop
         offset="100.0000%"
         stop-color="#ffffff"
         stop-opacity="1.0000"
         id="stop3643" />
    </linearGradient>
    <linearGradient
       xlink:href="#grad9"
       id="grad10"
       x1="0"
       y1="0"
       x2="0"
       y2="696.20685"
       gradientTransform="matrix(1.1375929,0,0,0.87904907,117.52741,7.4858223)"
       gradientUnits="userSpaceOnUse" />
  </defs>
  <g
     id="g3822">
    <path
       d="M 121.8702,274.2259 11.1724,210.3149 c -1.7251,-0.9922 -2.692,-2.7961 -2.6935,-4.6531 H 8.4566 V 77.8028 c 0,-2.1761 1.2903,-4.051 3.1461,-4.9022 L 121.9475,9.1942 c 1.7436,-1.0018 3.8135,-0.9162 5.4253,0.0445 l 110.6988,63.9108 c 1.7258,0.9915 2.6924,2.7964 2.6935,4.6533 h 0.0221 v 127.859 c 0,2.1759 -1.2897,4.0504 -3.1461,4.9017 L 127.296,274.2704 c -1.7436,1.0021 -3.8132,0.9165 -5.4258,-0.0445 z M 19.2361,202.5766 v 0 l 105.3856,60.8439 105.3862,-60.8439 V 80.8878 L 124.6217,20.0444 19.2361,80.8878 Z"
       style="fill:#000200;fill-rule:evenodd"
       id="path3651" />
    <path
       d="M 124.6217,13.8473 13.8466,205.6618 h 221.5508 z"
       style="fill:#ffff00;fill-rule:evenodd"
       id="path3653" />
    <path
       d="M 124.6217,24.5997 23.1684,200.2717 H 226.076 Z M 9.1936,202.9669 v 0 L 119.9307,11.2181 c 0.4552,-0.8149 1.1293,-1.5222 1.9962,-2.0239 2.5698,-1.4882 5.8597,-0.6111 7.3479,1.9585 l 110.592,191.4947 c 0.5817,0.8603 0.9204,1.8973 0.9204,3.0144 0,2.9764 -2.4128,5.3892 -5.3895,5.3892 H 13.8463 v -0.0122 c -0.9158,0.002 -1.8447,-0.2318 -2.6948,-0.7239 -2.5697,-1.4882 -3.4461,-4.7781 -1.9579,-7.348 z"
       style="fill:#000200;fill-rule:evenodd"
       id="path3655" />
    <path
       d="m 11.1724,82.4556 c -2.5699,-1.4765 -3.456,-4.7574 -1.9788,-7.3273 1.4765,-2.5696 4.7571,-3.4557 7.327,-1.9788 l 108.1011,62.3866 108.1021,-62.3866 c 2.5699,-1.4769 5.8501,-0.5908 7.3273,1.9788 1.4765,2.5699 0.5904,5.8508 -1.9795,7.3273 l -110.6997,63.8853 c -1.612,0.9601 -3.6813,1.0457 -5.4244,0.0436 z"
       style="fill:#000200;fill-rule:evenodd"
       id="path3657" />
    <path
       d="m 130.0113,269.6174 c 0,2.9763 -2.4132,5.3898 -5.3896,5.3898 -2.9763,0 -5.3897,-2.4135 -5.3897,-5.3898 V 141.7317 c 0,-2.9763 2.4134,-5.3895 5.3897,-5.3895 2.9764,0 5.3896,2.4132 5.3896,5.3895 z"
       style="fill:#000200;fill-rule:evenodd"
       id="path3659" />
    <path
       d="m 235.3977,219.5082 c 7.6468,0 13.8467,-6.1988 13.8467,-13.8464 0,-7.6482 -6.1999,-13.847 -13.8467,-13.847 -7.6479,0 -13.8469,6.1988 -13.8469,13.847 0,7.6476 6.199,13.8464 13.8469,13.8464 z"
       style="fill:#000200;fill-rule:evenodd"
       id="path3661" />
    <path
       d="m 235.3977,91.6501 c 7.6468,0 13.8467,-6.2 13.8467,-13.8473 0,-7.6478 -6.1999,-13.8466 -13.8467,-13.8466 -7.6479,0 -13.8469,6.1988 -13.8469,13.8466 0,7.6473 6.199,13.8473 13.8469,13.8473 z"
       style="fill:#000200;fill-rule:evenodd"
       id="path3663" />
    <path
       d="m 13.8463,91.6501 c 7.6476,0 13.8476,-6.2 13.8476,-13.8473 0,-7.6478 -6.2,-13.8466 -13.8476,-13.8466 C 6.1993,63.9562 0,70.155 0,77.8028 0,85.4501 6.1993,91.6501 13.8463,91.6501 Z"
       style="fill:#000200;fill-rule:evenodd"
       id="path3665" />
    <path
       d="m 13.8463,219.5082 c 7.6476,0 13.8476,-6.1988 13.8476,-13.8464 0,-7.6482 -6.2,-13.847 -13.8476,-13.847 -7.647,0 -13.8463,6.1988 -13.8463,13.847 0,7.6476 6.1993,13.8464 13.8463,13.8464 z"
       style="fill:#000200;fill-rule:evenodd"
       id="path3667" />
    <path
       d="m 124.6217,283.4649 c 7.6476,0 13.8476,-6.2 13.8476,-13.8475 0,-7.6471 -6.2,-13.8464 -13.8476,-13.8464 -7.6475,0 -13.8463,6.1993 -13.8463,13.8464 0,7.6475 6.1988,13.8475 13.8463,13.8475 z"
       style="fill:#000200;fill-rule:evenodd"
       id="path3669" />
    <path
       d="m 124.6217,155.579 c 7.6476,0 13.8476,-6.1999 13.8476,-13.8473 0,-7.6473 -6.2,-13.8463 -13.8476,-13.8463 -7.6475,0 -13.8463,6.199 -13.8463,13.8463 0,7.6474 6.1988,13.8473 13.8463,13.8473 z"
       style="fill:#000200;fill-rule:evenodd"
       id="path3671" />
    <path
       d="m 124.6217,27.6942 c 7.6476,0 13.8476,-6.1999 13.8476,-13.8466 C 138.4693,6.2 132.2693,0 124.6217,0 c -7.6475,0 -13.8463,6.2 -13.8463,13.8476 0,7.6467 6.1988,13.8466 13.8463,13.8466 z"
       style="fill:#000200;fill-rule:evenodd"
       id="path3673" />
  </g>
</svg>
